# xmcd
#
# Track frame offsets: 
#        150
#        16976
#        31466
#        48194
#        64643
#        78376
#        93158
#        110877
#        127027
#        141749
#
# Disc length: 2068 seconds
#
# Revision: 0
# Processed by: cddbd v1.5.1PL2 Copyright (c) Steve Scherf et al.
# Submitted via: ExactAudioCopy v0.95b4
#
DISCID=8908120a
DTITLE=อร  อรดี - สาวเมืองนนท์
DYEAR=1900
DGENRE=Country
TTITLE0=สาวเมืองนนท์
TTITLE1=หนูอยากสวย
TTITLE2=น้าฉันเอง
TTITLE3=นักร้องประกวด
TTITLE4=ขาดคนส่งเรียน
TTITLE5=ตามใจพ่อ
TTITLE6=หัวใจการ์ตูน
TTITLE7=ฝันเห็นงู
TTITLE8=ร้านน้ำร้านเน็ต
TTITLE9=ไม่แน่อย่ามา
EXTD=
EXTT0=
EXTT1=
EXTT2=
EXTT3=
EXTT4=
EXTT5=
EXTT6=
EXTT7=
EXTT8=
EXTT9=
PLAYORDER=
